<?xml version="1.0" ?><svg height="60px" version="1.1" viewBox="0 0 60 60" width="60px" xmlns="http://www.w3.org/2000/svg" xmlns:xlink="http://www.w3.org/1999/xlink"><title/><desc/><defs/><g fill="none" fill-rule="evenodd" id="Page-1" stroke="none" stroke-width="1"><g id="Google-Plus" stroke="#000000" stroke-width="2" transform="translate(1.000000, 1.000000)"><polygon id="Stroke-5" points="51.1717 29.8448 51.1717 26.3448 46.2817 26.3448 46.2817 21.4478 42.7887 21.4478 42.7887 26.3448 37.7607 26.3448 37.7607 29.8448 42.7887 29.8448 42.7887 34.8828 46.2817 34.8828 46.2817 29.8448"/><path d="M21.1076,43 C32.7556,43 35.6026,32.84 34.6596,26.065 L21.1076,26.065 L21.1076,31.662 C21.1076,31.662 26.5296,31.655 28.7366,31.655 C27.5426,35.283 25.6816,37.262 21.1076,37.262 C16.4806,37.262 12.8656,33.5 12.8656,28.865 C12.8656,24.228 16.4806,20.465 21.1076,20.465 C23.5576,20.465 25.1356,21.33 26.5866,22.528 C27.7476,21.367 27.6496,21.203 30.6016,18.409 C28.0976,16.124 24.7656,14.731 21.1076,14.731 C13.3166,14.731 6.9996,21.058 6.9996,28.865 C6.9996,36.67 13.3166,43 21.1076,43 L21.1076,43 Z" id="Stroke-7"/><path d="M54,58 L4,58 C1.791,58 0,56.209 0,54 L0,4 C0,1.791 1.791,0 4,0 L54,0 C56.209,0 58,1.791 58,4 L58,54 C58,56.209 56.209,58 54,58 L54,58 Z" id="Stroke-101" stroke-linejoin="round"/></g></g></svg>