<?xml version="1.0" ?><svg height="60px" version="1.1" viewBox="0 0 60 60" width="60px" xmlns="http://www.w3.org/2000/svg" xmlns:xlink="http://www.w3.org/1999/xlink"><title/><desc/><defs/><g fill="none" fill-rule="evenodd" id="Page-1" stroke="none" stroke-width="1"><g id="Soundcloud" stroke="#000000" stroke-width="2" transform="translate(1.000000, 1.000000)"><path d="M54,35.8315 C54,33.8665 53.307,32.1865 51.918,30.7875 C50.533,29.3885 48.862,28.6915 46.911,28.6915 C45.952,28.6915 45.044,28.8735 44.197,29.2385 C44.015,27.1185 43.355,25.1815 42.223,23.4225 C41.085,21.6625 39.598,20.2735 37.759,19.2575 C35.92,18.2375 33.931,17.7325 31.802,17.7325 C30.88,17.7325 29.954,17.8445 29.023,18.0695 C28.587,18.2095 28.372,18.6495 28.372,19.3845 L28.372,42.4475 C28.372,42.5325 28.405,42.6305 28.466,42.7425 C28.531,42.8545 28.625,42.9345 28.746,42.9765 L46.934,42.9995 C48.872,42.9995 50.533,42.2985 51.918,40.8995 C53.307,39.4995 54,37.8105 54,35.8315 L54,35.8315 Z" id="Stroke-37"/><path d="M25.4273,41.8302 L25.4273,20.6332 C25.4273,19.4452 25.0713,18.7762 24.3603,18.6212 C23.9023,18.5092 23.4483,18.6402 23.0033,19.0242 C22.5543,19.4032 22.3343,19.9412 22.3343,20.6332 L22.3343,41.8302 C22.3343,42.2182 22.4653,42.5082 22.7183,42.7052 C22.9803,42.8972 23.3633,42.9952 23.8783,42.9952 C24.9123,42.9952 25.4273,42.6072 25.4273,41.8302 L25.4273,41.8302 Z" id="Stroke-38"/><path d="M19.5403,41.7694 L19.5403,28.6914 C19.5403,28.2514 19.3903,27.8774 19.0913,27.5684 C18.7913,27.2544 18.4363,27.1004 18.0153,27.1004 C17.5843,27.1004 17.2143,27.2544 16.9103,27.5684 C16.6013,27.8774 16.4473,28.2514 16.4473,28.6914 L16.4473,41.7694 C16.4473,42.1764 16.5973,42.4854 16.8873,42.6914 C17.1823,42.8974 17.5563,42.9954 18.0153,42.9954 C18.4643,42.9954 18.8293,42.8974 19.1143,42.6914 C19.4003,42.4854 19.5403,42.1764 19.5403,41.7694 L19.5403,41.7694 Z" id="Stroke-39"/><path d="M13.3011,41.0909 L13.3011,26.7589 C13.3011,26.3379 13.1511,25.9729 12.8521,25.6679 C12.5521,25.3639 12.1871,25.2149 11.7521,25.2149 C11.3361,25.2149 10.9751,25.3639 10.6761,25.6679 C10.3771,25.9729 10.2271,26.3379 10.2271,26.7589 L10.2271,41.0909 C10.2271,41.4979 10.3721,41.8069 10.6571,42.0129 C10.9431,42.2189 11.3081,42.3219 11.7521,42.3219 C12.2151,42.3219 12.5851,42.2189 12.8711,42.0129 C13.1561,41.8069 13.3011,41.4979 13.3011,41.0909 L13.3011,41.0909 Z" id="Stroke-40"/><path d="M7.4329,38.4612 L7.4329,32.3132 C7.4329,31.8772 7.2829,31.5032 6.9789,31.1992 C6.6799,30.8992 6.3149,30.7452 5.8839,30.7452 C5.4679,30.7452 5.1069,30.8992 4.8079,31.1992 C4.5089,31.5032 4.3589,31.8772 4.3589,32.3132 L4.3589,38.4612 C4.3589,39.0272 4.5599,39.4532 4.9619,39.7432 C5.3689,40.0332 5.7999,40.1362 6.2589,40.0522 C6.6939,39.9682 6.9929,39.8092 7.1709,39.5842 C7.3439,39.3592 7.4329,38.9852 7.4329,38.4612 L7.4329,38.4612 Z" id="Stroke-41"/><path d="M54,58 L4,58 C1.791,58 0,56.209 0,54 L0,4 C0,1.791 1.791,0 4,0 L54,0 C56.209,0 58,1.791 58,4 L58,54 C58,56.209 56.209,58 54,58 L54,58 Z" id="Stroke-124" stroke-linejoin="round"/></g></g></svg>